<svg width="27" height="27" viewBox="0 0 27 27" fill="none" xmlns="http://www.w3.org/2000/svg">
<g clip-path="url(#clip0_129_1413)">
<path d="M4.77773 0.163476L4.64062 0.268945V1.10215C4.64062 2.04609 4.67754 2.16211 4.97813 2.16211C5.2998 2.16211 5.32617 2.07773 5.32617 1.0916C5.32617 0.247851 5.3209 0.216211 5.21016 0.137109C5.05195 0.0263669 4.94648 0.0316403 4.77773 0.163476Z" fill="white"/>
<path d="M1.89844 3.00586V3.74414H5.0625H8.22656V3.00586V2.26758H5.0625H1.89844V3.00586Z" fill="white"/>
<path d="M13.7742 3.14297C13.6635 3.2168 13.6582 3.25898 13.6582 3.96563C13.6582 4.58789 13.674 4.73027 13.7479 4.80938C13.827 4.89902 13.8111 4.9043 13.2205 4.9043H12.6035V5.64258V6.38086H13.9746H15.3457V5.64258V4.9043H14.7393H14.1328L14.2383 4.79883C14.3332 4.70391 14.3438 4.6248 14.3438 3.99199C14.3438 3.32227 14.3385 3.28008 14.2225 3.17461C14.0801 3.0375 13.9377 3.02695 13.7742 3.14297Z" fill="white"/>
<path d="M0 13.8164V23.2031H1.26562H2.53125V21.1834C2.53125 19.4432 2.5418 19.1479 2.61563 19.0477L2.69473 18.9316H5.03086C6.96094 18.9316 7.38281 18.9422 7.46719 19.0055C7.56211 19.0793 7.56738 19.1742 7.5832 21.1412L7.59902 23.2031H8.85938H10.125V13.8164V4.43496H5.0625H0V13.8164ZM8.46914 6.42305C8.65371 6.54434 8.66426 6.78164 8.50078 6.97148C8.42695 7.06113 8.19492 7.06641 5.05723 7.06641H1.69277L1.58203 6.92402C1.45547 6.76582 1.47656 6.56016 1.61895 6.44414C1.6875 6.39668 2.45742 6.38086 5.05723 6.38086C6.90293 6.38086 8.4375 6.40195 8.46914 6.42305ZM8.5377 9.47109C8.6748 9.64512 8.6748 9.7084 8.5377 9.88242L8.42695 10.0195L5.05195 10.009L1.67168 9.99316L1.57148 9.85605C1.46074 9.7084 1.47656 9.55547 1.61367 9.41309C1.68223 9.34453 2.13574 9.33398 5.0625 9.33398H8.43223L8.5377 9.47109ZM8.5377 12.4242C8.6748 12.5982 8.6748 12.6615 8.5377 12.8355L8.43223 12.9727H5.07305C3.22734 12.9727 1.6875 12.9516 1.65586 12.9305C1.5873 12.8883 1.47656 12.6879 1.47656 12.6141C1.47656 12.5877 1.52402 12.5033 1.5873 12.4242L1.69277 12.2871H5.0625H8.43223L8.5377 12.4242ZM8.50078 15.3299C8.66426 15.525 8.65371 15.7623 8.46914 15.8836C8.4375 15.9047 6.90293 15.9258 5.05723 15.9258C2.45742 15.9258 1.6875 15.91 1.61895 15.8572C1.47656 15.7465 1.45547 15.5408 1.58203 15.3826L1.69277 15.2402H5.05723C8.19492 15.2402 8.42695 15.2455 8.50078 15.3299Z" fill="white"/>
<path d="M10.8105 15.1348V23.2031H12.2818H13.7584L13.6055 22.7865C13.442 22.3488 13.2363 21.426 13.2363 21.157V20.9988L12.6879 20.9777C12.0709 20.9566 11.918 20.8828 11.918 20.6086C11.918 20.3238 12.0656 20.25 12.651 20.25H13.173L13.21 19.8387C13.2258 19.6172 13.2891 19.2059 13.3471 18.9211C13.3998 18.6416 13.4473 18.3885 13.4473 18.3568C13.4473 18.3199 13.2258 18.2988 12.7723 18.2988C12.1816 18.2988 12.0814 18.2883 12.0076 18.2039C11.8863 18.0721 11.8969 17.8453 12.0234 17.7188C12.1184 17.6238 12.1975 17.6133 12.941 17.6133H13.7531L13.8428 17.3918C13.9588 17.0912 14.3121 16.49 14.5652 16.1473L14.7709 15.873H13.4473C12.1975 15.873 12.1236 15.8678 12.0234 15.7676C11.8969 15.641 11.8863 15.467 12.0023 15.3035L12.0867 15.1822L13.7268 15.1875L15.3721 15.1928L15.6832 14.9238C15.8572 14.7709 16.1262 14.5652 16.2791 14.4545L16.5533 14.2646L16.5586 10.6629V7.06641H13.6846H10.8105V15.1348Z" fill="white"/>
<path d="M19.7332 13.8691C17.1703 14.1908 15.0451 15.8994 14.2383 18.2988C13.8217 19.5328 13.8111 21.1517 14.2119 22.3804C14.5441 23.4035 15.0556 24.2314 15.8203 25.0013C17.2177 26.4041 19.1742 27.1054 21.099 26.8998C23.9572 26.5886 26.2037 24.5847 26.8576 21.7582C27 21.1306 27.0105 19.6963 26.8787 19.1004C26.3408 16.7379 24.7429 14.9291 22.5281 14.1802C21.6949 13.8955 20.54 13.7689 19.7332 13.8691ZM20.6824 15.5408C20.7615 15.6093 20.7773 15.7043 20.7773 16.0629V16.4953L21.0304 16.5586C21.6052 16.6957 22.1906 17.1808 22.4754 17.7609C22.6072 18.0246 22.6441 18.1828 22.6652 18.5045C22.6863 18.8894 22.681 18.9211 22.565 19.0054C22.391 19.1215 22.2697 19.1109 22.122 18.958C22.0324 18.8736 21.9902 18.7734 21.9902 18.6468C21.9902 18.5467 21.9427 18.3304 21.8847 18.1722C21.5103 17.1861 20.2289 16.8697 19.4273 17.5763C18.7787 18.1511 18.7365 19.1636 19.3429 19.7912C19.6383 20.1023 19.8914 20.2025 20.5295 20.2816C21.2677 20.3713 21.6422 20.5453 22.064 20.983C22.4174 21.3574 22.6125 21.7476 22.6652 22.2064C22.7179 22.6863 22.6599 23.0871 22.4806 23.4826C22.2011 24.0732 21.7265 24.4898 21.1043 24.6797L20.8037 24.7746L20.7879 25.2386C20.772 25.7713 20.7035 25.8926 20.4293 25.8926C20.1603 25.8926 20.0918 25.7449 20.0918 25.2017V24.7429L19.8967 24.706C19.1953 24.5742 18.4728 23.857 18.2672 23.0765C18.1142 22.5123 18.2092 22.2011 18.5308 22.2011C18.7576 22.2011 18.8631 22.3224 18.9052 22.6494C19.0265 23.4931 19.6541 24.0627 20.4715 24.0627C21.273 24.0627 21.9111 23.4615 21.9797 22.6441C22.0166 22.159 21.8847 21.8267 21.5209 21.4576C21.1939 21.1306 20.867 20.9883 20.4609 20.9883C19.8756 20.9883 19.2427 20.714 18.8314 20.2763C17.6765 19.0529 18.1881 17.0859 19.7912 16.5797L20.0918 16.4847V16.084C20.0918 15.6041 20.1709 15.4511 20.4187 15.4511C20.5084 15.4511 20.6297 15.4881 20.6824 15.5408Z" fill="white"/>
<path d="M3.26953 21.4102V23.2031H3.95508H4.64062V21.4102V19.6172H3.95508H3.26953V21.4102Z" fill="white"/>
<path d="M5.32617 21.4102V23.2031H6.09082H6.85547V21.4102V19.6172H6.09082H5.32617V21.4102Z" fill="white"/>
</g>
<defs>
<clipPath id="clip0_129_1413">
<rect width="27" height="27" fill="white"/>
</clipPath>
</defs>
</svg>
