<svg width="11" height="11" viewBox="0 0 11 11" fill="none" xmlns="http://www.w3.org/2000/svg">
<path d="M8.06795 0C9.9385 0 10.9945 1.06095 11 2.9315V8.0685C11 9.9385 9.9385 11 8.06795 11H2.9315C1.06095 11 0 9.9385 0 8.0685V2.9315C0 1.06095 1.06095 0 2.9315 0H8.06795ZM5.775 2.2715C5.62045 2.178 5.43345 2.178 5.2855 2.2715C5.13645 2.36445 5.0545 2.5355 5.07045 2.706V8.3105C5.0985 8.547 5.29595 8.723 5.52695 8.723C5.764 8.723 5.96145 8.547 5.98345 8.3105V2.706C6.00545 2.5355 5.9235 2.36445 5.775 2.2715ZM3.2065 4.0755C3.058 3.982 2.87045 3.982 2.7225 4.0755C2.57345 4.169 2.4915 4.33895 2.508 4.51V8.3105C2.52945 8.547 2.72745 8.723 2.96395 8.723C3.201 8.723 3.39845 8.547 3.42045 8.3105V4.51C3.4375 4.33895 3.35445 4.169 3.2065 4.0755ZM8.29895 6.072C8.151 5.9785 7.964 5.9785 7.81 6.072C7.66095 6.1655 7.579 6.32995 7.601 6.5065V8.3105C7.623 8.547 7.82045 8.723 8.0575 8.723C8.2885 8.723 8.48595 8.547 8.514 8.3105V6.5065C8.52995 6.32995 8.448 6.1655 8.29895 6.072Z" fill="url(#paint0_linear_142_2245)"/>
<defs>
<linearGradient id="paint0_linear_142_2245" x1="-1.16929" y1="8.35551e-07" x2="13.4461" y2="1.34251" gradientUnits="userSpaceOnUse">
<stop stop-color="#006BB3"/>
<stop offset="1" stop-color="#ADD587"/>
</linearGradient>
</defs>
</svg>
