<svg width="21" height="13" viewBox="0 0 21 13" fill="none" xmlns="http://www.w3.org/2000/svg">
<path d="M10.5 0C6.23986 0 2.27099 2.29683 0.137188 5.99155C0.0473383 6.14591 0 6.32136 0 6.5C0 6.67864 0.0473383 6.85409 0.137188 7.00845C2.27099 10.7025 6.24053 13 10.5 13C14.7595 13 18.729 10.7032 20.8628 7.00845C21.0457 6.6966 21.0457 6.3034 20.8628 5.99155C18.729 2.29751 14.7595 0 10.5 0ZM10.5 10.533C8.27814 10.533 6.47017 8.72293 6.47017 6.5C6.47017 4.27707 8.27882 2.46699 10.5 2.46699C12.7212 2.46699 14.5298 4.27707 14.5298 6.5C14.5298 8.72293 12.7212 10.533 10.5 10.533Z" fill="white"/>
<path d="M10.5 9C11.8807 9 13 7.88071 13 6.5C13 5.11929 11.8807 4 10.5 4C9.11929 4 8 5.11929 8 6.5C8 7.88071 9.11929 9 10.5 9Z" fill="white"/>
</svg>
