<svg width="19" height="18" viewBox="0 0 19 18" fill="none" xmlns="http://www.w3.org/2000/svg">
<path d="M2.5 2V6C2.5 6.26522 2.39464 6.51957 2.20711 6.70711C2.01957 6.89464 1.76522 7 1.5 7C1.23478 7 0.98043 6.89464 0.792893 6.70711C0.605357 6.51957 0.5 6.26522 0.5 6V1C0.5 0.734784 0.605357 0.48043 0.792893 0.292893C0.98043 0.105357 1.23478 0 1.5 0H6.5C6.76522 0 7.01957 0.105357 7.20711 0.292893C7.39464 0.48043 7.5 0.734784 7.5 1C7.5 1.26522 7.39464 1.51957 7.20711 1.70711C7.01957 1.89464 6.76522 2 6.5 2H2.5ZM16.5 2H12.5C12.2348 2 11.9804 1.89464 11.7929 1.70711C11.6054 1.51957 11.5 1.26522 11.5 1C11.5 0.734784 11.6054 0.48043 11.7929 0.292893C11.9804 0.105357 12.2348 0 12.5 0H17.5C17.7652 0 18.0196 0.105357 18.2071 0.292893C18.3946 0.48043 18.5 0.734784 18.5 1V6C18.5 6.26522 18.3946 6.51957 18.2071 6.70711C18.0196 6.89464 17.7652 7 17.5 7C17.2348 7 16.9804 6.89464 16.7929 6.70711C16.6054 6.51957 16.5 6.26522 16.5 6V2ZM2.5 16H6.5C6.76522 16 7.01957 16.1054 7.20711 16.2929C7.39464 16.4804 7.5 16.7348 7.5 17C7.5 17.2652 7.39464 17.5196 7.20711 17.7071C7.01957 17.8946 6.76522 18 6.5 18H1.5C1.23478 18 0.98043 17.8946 0.792893 17.7071C0.605357 17.5196 0.5 17.2652 0.5 17V12C0.5 11.7348 0.605357 11.4804 0.792893 11.2929C0.98043 11.1054 1.23478 11 1.5 11C1.76522 11 2.01957 11.1054 2.20711 11.2929C2.39464 11.4804 2.5 11.7348 2.5 12V16ZM16.5 16V12C16.5 11.7348 16.6054 11.4804 16.7929 11.2929C16.9804 11.1054 17.2348 11 17.5 11C17.7652 11 18.0196 11.1054 18.2071 11.2929C18.3946 11.4804 18.5 11.7348 18.5 12V17C18.5 17.2652 18.3946 17.5196 18.2071 17.7071C18.0196 17.8946 17.7652 18 17.5 18H12.5C12.2348 18 11.9804 17.8946 11.7929 17.7071C11.6054 17.5196 11.5 17.2652 11.5 17C11.5 16.7348 11.6054 16.4804 11.7929 16.2929C11.9804 16.1054 12.2348 16 12.5 16H16.5ZM3.793 4.707C3.61084 4.5184 3.51005 4.2658 3.51233 4.0036C3.5146 3.7414 3.61977 3.49059 3.80518 3.30518C3.99059 3.11977 4.2414 3.0146 4.5036 3.01233C4.7658 3.01005 5.0184 3.11084 5.207 3.293L7.207 5.293C7.30251 5.38525 7.37869 5.49559 7.4311 5.6176C7.48351 5.7396 7.5111 5.87082 7.51225 6.0036C7.5134 6.13638 7.4881 6.26806 7.43782 6.39095C7.38754 6.51385 7.31329 6.6255 7.21939 6.71939C7.1255 6.81329 7.01385 6.88754 6.89095 6.93782C6.76806 6.9881 6.63638 7.0134 6.5036 7.01225C6.37082 7.0111 6.2396 6.98351 6.1176 6.9311C5.99559 6.87869 5.88525 6.80251 5.793 6.707L3.793 4.707ZM11.793 12.707C11.6108 12.5184 11.51 12.2658 11.5123 12.0036C11.5146 11.7414 11.6198 11.4906 11.8052 11.3052C11.9906 11.1198 12.2414 11.0146 12.5036 11.0123C12.7658 11.01 13.0184 11.1108 13.207 11.293L15.207 13.293C15.3892 13.4816 15.49 13.7342 15.4877 13.9964C15.4854 14.2586 15.3802 14.5094 15.1948 14.6948C15.0094 14.8802 14.7586 14.9854 14.4964 14.9877C14.2342 14.99 13.9816 14.8892 13.793 14.707L11.793 12.707ZM13.207 6.707C13.1148 6.80251 13.0044 6.87869 12.8824 6.9311C12.7604 6.98351 12.6292 7.0111 12.4964 7.01225C12.3636 7.0134 12.2319 6.9881 12.109 6.93782C11.9861 6.88754 11.8745 6.81329 11.7806 6.71939C11.6867 6.6255 11.6125 6.51385 11.5622 6.39095C11.5119 6.26806 11.4866 6.13638 11.4877 6.0036C11.4889 5.87082 11.5165 5.7396 11.5689 5.6176C11.6213 5.49559 11.6975 5.38525 11.793 5.293L13.793 3.293C13.9816 3.11084 14.2342 3.01005 14.4964 3.01233C14.7586 3.0146 15.0094 3.11977 15.1948 3.30518C15.3802 3.49059 15.4854 3.7414 15.4877 4.0036C15.49 4.2658 15.3892 4.5184 15.207 4.707L13.207 6.707ZM5.207 14.707C5.11475 14.8025 5.00441 14.8787 4.8824 14.9311C4.7604 14.9835 4.62918 15.0111 4.4964 15.0123C4.36362 15.0134 4.23194 14.9881 4.10905 14.9378C3.98615 14.8875 3.8745 14.8133 3.7806 14.7194C3.68671 14.6255 3.61246 14.5138 3.56218 14.391C3.5119 14.2681 3.4866 14.1364 3.48775 14.0036C3.4889 13.8708 3.51649 13.7396 3.5689 13.6176C3.62131 13.4956 3.69749 13.3852 3.793 13.293L5.793 11.293C5.88525 11.1975 5.99559 11.1213 6.1176 11.0689C6.2396 11.0165 6.37082 10.9889 6.5036 10.9877C6.63638 10.9866 6.76806 11.0119 6.89095 11.0622C7.01385 11.1125 7.1255 11.1867 7.21939 11.2806C7.31329 11.3745 7.38754 11.4861 7.43782 11.609C7.4881 11.7319 7.5134 11.8636 7.51225 11.9964C7.5111 12.1292 7.48351 12.2604 7.4311 12.3824C7.37869 12.5044 7.30251 12.6148 7.207 12.707L5.207 14.707Z" fill="white"/>
</svg>
