<svg width="10" height="14" viewBox="0 0 10 14" fill="none" xmlns="http://www.w3.org/2000/svg">
<path fill-rule="evenodd" clip-rule="evenodd" d="M9.99999 5.11939C10.0016 6.16445 9.6894 7.18475 9.10571 8.04203H9.10714L5.60214 13.662C5.53758 13.7656 5.44857 13.8509 5.34333 13.91C5.23809 13.969 5.12001 14 5 14C4.87998 14 4.7619 13.969 4.65666 13.91C4.55142 13.8509 4.46241 13.7656 4.39785 13.662L0.91 8.0647C0.458009 7.40655 0.163872 6.64857 0.0514442 5.85226C-0.0609834 5.05595 0.0114637 4.24371 0.26291 3.48143C0.514357 2.71914 0.937724 2.02827 1.49867 1.46484C2.05963 0.901417 2.74237 0.481297 3.49153 0.238556C4.24069 -0.00418459 5.03518 -0.0627115 5.81056 0.0677222C6.58594 0.198156 7.32038 0.513878 7.95432 0.989282C8.58826 1.46469 9.10385 2.08639 9.45927 2.80397C9.81469 3.52155 9.99994 4.3148 9.99999 5.11939V5.11939ZM5 8.04495C5.75776 8.04495 6.48448 7.73673 7.0203 7.18808C7.55612 6.63943 7.85714 5.8953 7.85714 5.11939C7.85714 4.34348 7.55612 3.59935 7.0203 3.0507C6.48448 2.50206 5.75776 2.19383 5 2.19383C4.24224 2.19383 3.51551 2.50206 2.97969 3.0507C2.44388 3.59935 2.14286 4.34348 2.14286 5.11939C2.14286 5.8953 2.44388 6.63943 2.97969 7.18808C3.51551 7.73673 4.24224 8.04495 5 8.04495V8.04495Z" fill="url(#paint0_linear_130_1536)"/>
<defs>
<linearGradient id="paint0_linear_130_1536" x1="-1.06299" y1="1.06343e-06" x2="12.2784" y2="0.875344" gradientUnits="userSpaceOnUse">
<stop stop-color="#006BB3"/>
<stop offset="1" stop-color="#ADD587"/>
</linearGradient>
</defs>
</svg>
