<svg width="25" height="25" viewBox="0 0 25 25" fill="none" xmlns="http://www.w3.org/2000/svg">
<g clip-path="url(#clip0_91_1864)">
<path d="M21.4118 0.529297H10.1961C9.38559 0.531718 8.60897 0.854763 8.03585 1.42788C7.46273 2.001 7.13969 2.77761 7.13727 3.58812V9.70577H10.1961C10.1941 9.30386 10.2724 8.90561 10.4265 8.5344C10.5806 8.1632 10.8073 7.82654 11.0933 7.5442C11.6746 6.98613 12.4491 6.67449 13.2549 6.67449C14.0607 6.67449 14.8352 6.98613 15.4165 7.5442L18.4753 10.603C19.0405 11.1806 19.357 11.9565 19.357 12.7646C19.357 13.5727 19.0405 14.3486 18.4753 14.9262L15.4165 17.985C14.8398 18.5519 14.0636 18.8696 13.2549 18.8696C12.4463 18.8696 11.67 18.5519 11.0933 17.985C10.8073 17.7026 10.5806 17.366 10.4265 16.9948C10.2724 16.6236 10.1941 16.2253 10.1961 15.8234H7.13727V21.9411C7.13969 22.7516 7.46273 23.5282 8.03585 24.1013C8.60897 24.6744 9.38559 24.9975 10.1961 24.9999H21.4118C22.2223 24.9975 22.9989 24.6744 23.572 24.1013C24.1451 23.5282 24.4682 22.7516 24.4706 21.9411V3.58812C24.4682 2.77761 24.1451 2.001 23.572 1.42788C22.9989 0.854763 22.2223 0.531718 21.4118 0.529297V0.529297Z" fill="url(#paint0_linear_91_1864)"/>
<path d="M13.8565 13.7841L12.531 15.0994C12.34 15.2919 12.2328 15.5521 12.2328 15.8233C12.2328 16.0945 12.34 16.3547 12.531 16.5472C12.7268 16.7319 12.9858 16.8347 13.2549 16.8347C13.524 16.8347 13.783 16.7319 13.9788 16.5472L17.0376 13.4884C17.2209 13.2919 17.3228 13.0332 17.3228 12.7645C17.3228 12.4958 17.2209 12.2371 17.0376 12.0406L13.9788 8.98174C13.7868 8.78975 13.5264 8.68188 13.2549 8.68188C12.9834 8.68188 12.723 8.78975 12.531 8.98174C12.339 9.17374 12.2311 9.43414 12.2311 9.70566C12.2311 9.97719 12.339 10.2376 12.531 10.4296L13.8565 11.7449H1.01961C0.749191 11.7449 0.48985 11.8523 0.298636 12.0435C0.107423 12.2347 0 12.4941 0 12.7645C0 13.0349 0.107423 13.2942 0.298636 13.4855C0.48985 13.6767 0.749191 13.7841 1.01961 13.7841H13.8565Z" fill="url(#paint1_linear_91_1864)"/>
</g>
<defs>
<linearGradient id="paint0_linear_91_1864" x1="5.29475" y1="0.529299" x2="28.4215" y2="2.03402" gradientUnits="userSpaceOnUse">
<stop stop-color="#006BB3"/>
<stop offset="1" stop-color="#ADD587"/>
</linearGradient>
<linearGradient id="paint1_linear_91_1864" x1="-1.8414" y1="8.68189" x2="20.5175" y2="13.0457" gradientUnits="userSpaceOnUse">
<stop stop-color="#006BB3"/>
<stop offset="1" stop-color="#ADD587"/>
</linearGradient>
<clipPath id="clip0_91_1864">
<rect width="24.4706" height="24.4706" fill="white" transform="translate(0 0.529297)"/>
</clipPath>
</defs>
</svg>
