<svg width="48" height="48" viewBox="0 0 48 48" fill="none" xmlns="http://www.w3.org/2000/svg">
<g filter="url(#filter0_b_232_1349)">
<circle cx="24" cy="24" r="24" fill="#000002" fill-opacity="0.7"/>
</g>
<g clip-path="url(#clip0_232_1349)">
<path d="M33 12H22C21.2051 12.0024 20.4434 12.3192 19.8813 12.8813C19.3192 13.4434 19.0024 14.2051 19 15V21H22C21.998 20.6058 22.0749 20.2152 22.226 19.8512C22.3771 19.4871 22.5995 19.1569 22.88 18.88C23.4501 18.3327 24.2097 18.027 25 18.027C25.7903 18.027 26.5499 18.3327 27.12 18.88L30.12 21.88C30.6743 22.4464 30.9848 23.2075 30.9848 24C30.9848 24.7925 30.6743 25.5536 30.12 26.12L27.12 29.12C26.5544 29.676 25.7931 29.9876 25 29.9876C24.2069 29.9876 23.4456 29.676 22.88 29.12C22.5995 28.8431 22.3771 28.5129 22.226 28.1488C22.0749 27.7848 21.998 27.3942 22 27H19V33C19.0024 33.7949 19.3192 34.5566 19.8813 35.1187C20.4434 35.6808 21.2051 35.9976 22 36H33C33.7949 35.9976 34.5566 35.6808 35.1187 35.1187C35.6808 34.5566 35.9976 33.7949 36 33V15C35.9976 14.2051 35.6808 13.4434 35.1187 12.8813C34.5566 12.3192 33.7949 12.0024 33 12V12Z" fill="white"/>
<path d="M25.59 24.9999L24.29 26.2899C24.1026 26.4787 23.9975 26.734 23.9975 26.9999C23.9975 27.2659 24.1026 27.5211 24.29 27.7099C24.4821 27.891 24.736 27.9919 25 27.9919C25.264 27.9919 25.5179 27.891 25.71 27.7099L28.71 24.7099C28.8897 24.5172 28.9897 24.2635 28.9897 23.9999C28.9897 23.7364 28.8897 23.4827 28.71 23.2899L25.71 20.2899C25.5217 20.1016 25.2663 19.9958 25 19.9958C24.7337 19.9958 24.4783 20.1016 24.29 20.2899C24.1017 20.4782 23.9959 20.7336 23.9959 20.9999C23.9959 21.2662 24.1017 21.5216 24.29 21.7099L25.59 22.9999H13C12.7348 22.9999 12.4804 23.1053 12.2929 23.2928C12.1054 23.4804 12 23.7347 12 23.9999C12 24.2652 12.1054 24.5195 12.2929 24.707C12.4804 24.8946 12.7348 24.9999 13 24.9999H25.59Z" fill="white"/>
</g>
<defs>
<filter id="filter0_b_232_1349" x="-32" y="-32" width="112" height="112" filterUnits="userSpaceOnUse" color-interpolation-filters="sRGB">
<feFlood flood-opacity="0" result="BackgroundImageFix"/>
<feGaussianBlur in="BackgroundImage" stdDeviation="16"/>
<feComposite in2="SourceAlpha" operator="in" result="effect1_backgroundBlur_232_1349"/>
<feBlend mode="normal" in="SourceGraphic" in2="effect1_backgroundBlur_232_1349" result="shape"/>
</filter>
<clipPath id="clip0_232_1349">
<rect width="24" height="24" fill="white" transform="translate(12 12)"/>
</clipPath>
</defs>
</svg>
