<svg width="10" height="13" viewBox="0 0 10 13" fill="none" xmlns="http://www.w3.org/2000/svg">
<path d="M8.125 0H1.875C0.8125 0 0 0.845 0 1.95V5.85H5.375L3.9375 4.355C3.6875 4.095 3.6875 3.705 3.9375 3.445C4.1875 3.185 4.5625 3.185 4.8125 3.445L7.3125 6.045C7.5625 6.305 7.5625 6.695 7.3125 6.955L4.8125 9.555C4.5625 9.815 4.1875 9.815 3.9375 9.555C3.6875 9.295 3.6875 8.905 3.9375 8.645L5.375 7.15H0V11.05C0 12.155 0.8125 13 1.875 13H8.125C9.1875 13 10 12.155 10 11.05V1.95C10 0.845 9.1875 0 8.125 0Z" fill="url(#paint0_linear_142_2254)"/>
<defs>
<linearGradient id="paint0_linear_142_2254" x1="-1.06299" y1="9.87469e-07" x2="12.2693" y2="0.942033" gradientUnits="userSpaceOnUse">
<stop stop-color="#006BB3"/>
<stop offset="1" stop-color="#ADD587"/>
</linearGradient>
</defs>
</svg>
