<svg width="23" height="23" viewBox="0 0 23 23" fill="none" xmlns="http://www.w3.org/2000/svg">
<path d="M15.8961 12.7437C14.8202 14.3672 13.6541 15.9293 12.4036 17.4224C12.2664 17.5804 12.09 17.6994 11.8922 17.7674V22.8783L16.7009 21.1615L15.8961 12.7437ZM10.5879 17.4184C9.33589 15.9278 8.16981 14.367 7.09533 12.7437L6.30247 21.1615L11.0993 22.8783V17.7674C10.9004 17.6995 10.7237 17.5789 10.5879 17.4184ZM17.4977 21.2011L22.461 22.9735C22.5273 22.999 22.5992 23.0063 22.6692 22.9945C22.7393 22.9828 22.8048 22.9524 22.8591 22.9066C22.9134 22.8608 22.9544 22.8013 22.9778 22.7342C23.0012 22.6672 23.0062 22.5951 22.9922 22.5254L21.4065 14.1988C21.3938 14.1347 21.3654 14.0747 21.3239 14.0242C21.2824 13.9737 21.2291 13.9343 21.1687 13.9094L16.6255 12.0181L17.4977 21.2011ZM0.530424 22.9735L5.49375 21.2011L6.3659 12.0181L1.83072 13.9094C1.77029 13.9343 1.71695 13.9737 1.67545 14.0242C1.63395 14.0747 1.60558 14.1347 1.59286 14.1988L0.00713364 22.5254C-0.00607921 22.5941 -0.000874067 22.6651 0.0222205 22.7312C0.045315 22.7972 0.0854763 22.856 0.138625 22.9015C0.191774 22.947 0.256018 22.9777 0.324831 22.9903C0.393645 23.0029 0.464577 22.9971 0.530424 22.9735ZM11.797 16.9109C12.0468 16.6175 17.8386 9.73419 17.8386 6.34407C17.8386 4.66152 17.1704 3.04788 15.9808 1.85814C14.7913 0.668392 13.178 0 11.4957 0C9.81348 0 8.20014 0.668392 7.01061 1.85814C5.82108 3.04788 5.15282 4.66152 5.15282 6.34407C5.15282 9.73419 10.9447 16.6175 11.1944 16.9109C11.2317 16.9545 11.2779 16.9894 11.3299 17.0134C11.3819 17.0373 11.4385 17.0497 11.4957 17.0497C11.553 17.0497 11.6096 17.0373 11.6616 17.0134C11.7136 16.9894 11.7598 16.9545 11.797 16.9109ZM8.7207 6.34407C8.7207 5.79513 8.88345 5.25851 9.18838 4.80207C9.4933 4.34564 9.9267 3.98989 10.4338 3.77982C10.9408 3.56974 11.4988 3.51478 12.0371 3.62187C12.5754 3.72897 13.0699 3.99331 13.458 4.38148C13.8461 4.76964 14.1103 5.26419 14.2174 5.80259C14.3245 6.341 14.2695 6.89906 14.0595 7.40622C13.8495 7.91339 13.4938 8.34687 13.0374 8.65185C12.5811 8.95683 12.0446 9.11961 11.4957 9.11961C10.7597 9.11961 10.0539 8.82719 9.53349 8.30667C9.01307 7.78616 8.7207 7.08019 8.7207 6.34407Z" fill="white"/>
</svg>
