<svg width="19" height="19" viewBox="0 0 19 19" fill="none" xmlns="http://www.w3.org/2000/svg">
<path fill-rule="evenodd" clip-rule="evenodd" d="M0 9.5C0 4.25695 4.25695 0 9.5 0C14.743 0 19 4.25695 19 9.5C19 14.743 14.743 19 9.5 19C4.25695 19 0 14.743 0 9.5ZM4.02452 4.51155L6.79725 11.4434C6.91758 11.7439 7.25895 12.0856 7.55947 12.2059L14.4916 14.9786C14.9425 15.1588 15.162 14.9394 14.9818 14.4884L12.2088 7.55662C12.0887 7.2561 11.7471 6.91442 11.4465 6.79408L4.5144 4.02135C4.06378 3.84117 3.84402 4.06062 4.02452 4.51155Z" fill="white"/>
<path d="M7.91663 9.49996C7.91663 8.62596 8.62596 7.91663 9.49996 7.91663C10.374 7.91663 11.0833 8.62596 11.0833 9.49996C11.0833 10.374 10.374 11.0833 9.49996 11.0833C8.62596 11.0833 7.91663 10.374 7.91663 9.49996Z" fill="white"/>
</svg>
