<svg width="14" height="15" viewBox="0 0 14 15" fill="none" xmlns="http://www.w3.org/2000/svg">
<path fill-rule="evenodd" clip-rule="evenodd" d="M7 14.5C10.8661 14.5 14 11.3661 14 7.5C14 3.6339 10.8661 0.5 7 0.5C3.1339 0.5 0 3.6339 0 7.5C0 11.3661 3.1339 14.5 7 14.5ZM9.1 6.1C9.1 6.65695 8.87875 7.1911 8.48492 7.58492C8.0911 7.97875 7.55695 8.2 7 8.2C6.44305 8.2 5.9089 7.97875 5.51508 7.58492C5.12125 7.1911 4.9 6.65695 4.9 6.1C4.9 5.54305 5.12125 5.0089 5.51508 4.61508C5.9089 4.22125 6.44305 4 7 4C7.55695 4 8.0911 4.22125 8.48492 4.61508C8.87875 5.0089 9.1 5.54305 9.1 6.1ZM2.8 11C3.28861 10.3475 3.92264 9.81799 4.65172 9.45344C5.38081 9.0889 6.18486 8.8994 7 8.9C7.81514 8.8994 8.61919 9.0889 9.34828 9.45344C10.0774 9.81799 10.7114 10.3475 11.2 11C10.7114 11.6525 10.0774 12.182 9.34828 12.5466C8.61919 12.9111 7.81514 13.1006 7 13.1C6.18486 13.1006 5.38081 12.9111 4.65172 12.5466C3.92264 12.182 3.28861 11.6525 2.8 11Z" fill="url(#paint0_linear_141_2203)"/>
<defs>
<linearGradient id="paint0_linear_141_2203" x1="-1.48819" y1="0.500001" x2="17.1133" y2="2.20864" gradientUnits="userSpaceOnUse">
<stop stop-color="#006BB3"/>
<stop offset="1" stop-color="#ADD587"/>
</linearGradient>
</defs>
</svg>
