<svg width="14" height="15" viewBox="0 0 14 15" fill="none" xmlns="http://www.w3.org/2000/svg">
<path d="M7 0.5C10.866 0.5 14 3.63401 14 7.5C14 11.366 10.866 14.5 7 14.5C3.13401 14.5 0 11.366 0 7.5C0 3.63401 3.13401 0.5 7 0.5ZM7 10.4167C6.51675 10.4167 6.125 10.8084 6.125 11.2917C6.125 11.7749 6.51675 12.1667 7 12.1667C7.48325 12.1667 7.875 11.7749 7.875 11.2917C7.875 10.8084 7.48325 10.4167 7 10.4167ZM7 3.41667C5.71134 3.41667 4.66667 4.46134 4.66667 5.75C4.66667 6.07217 4.92783 6.33333 5.25 6.33333C5.57217 6.33333 5.83333 6.07217 5.83333 5.75C5.83333 5.10567 6.35567 4.58333 7 4.58333C7.64433 4.58333 8.16667 5.10567 8.16667 5.75C8.16667 6.18234 8.07033 6.42588 7.73964 6.79714L7.60438 6.94297L7.29628 7.25744C6.66374 7.92036 6.41667 8.39771 6.41667 9.25C6.41667 9.57217 6.67783 9.83333 7 9.83333C7.32217 9.83333 7.58333 9.57217 7.58333 9.25C7.58333 8.81766 7.67967 8.57412 8.01036 8.20286L8.14562 8.05703L8.45372 7.74256C9.08626 7.07964 9.33333 6.60229 9.33333 5.75C9.33333 4.46134 8.28866 3.41667 7 3.41667Z" fill="url(#paint0_linear_142_2253)"/>
<defs>
<linearGradient id="paint0_linear_142_2253" x1="-1.48819" y1="0.500001" x2="17.1133" y2="2.20864" gradientUnits="userSpaceOnUse">
<stop stop-color="#006BB3"/>
<stop offset="1" stop-color="#ADD587"/>
</linearGradient>
</defs>
</svg>
