<svg width="9" height="15" viewBox="0 0 9 15" fill="none" xmlns="http://www.w3.org/2000/svg">
<path d="M1.74821 8.14284H3.07373L1.46665 1.7145H3.30644L3.85735 5.5715H5.14302L5.69392 1.7145H7.53371L5.92663 8.14284H7.25215L8.98073 1.22788C9.00448 1.13309 9.0063 1.03414 8.98606 0.938544C8.96583 0.842948 8.92407 0.753223 8.86395 0.676189C8.80384 0.599155 8.72695 0.536839 8.63914 0.493978C8.55133 0.451116 8.4549 0.428838 8.35718 0.428835H0.643181C0.545384 0.428586 0.448824 0.450699 0.360882 0.493484C0.272939 0.536268 0.195943 0.598592 0.135777 0.675692C0.0756103 0.752792 0.033867 0.842627 0.0137372 0.93833C-0.00639264 1.03403 -0.00437611 1.13307 0.0196326 1.22788L1.74821 8.14284Z" fill="url(#paint0_linear_142_2242)"/>
<path d="M4.50031 6.85718L5.60213 9.61236H8.35731L5.97369 11.6244L7.25485 14.5712L4.50031 12.7487L1.74513 14.5712L3.02694 11.6244L0.643311 9.61236H3.39785L4.50031 6.85718Z" fill="url(#paint1_linear_142_2242)"/>
<defs>
<linearGradient id="paint0_linear_142_2242" x1="-0.956693" y1="0.428834" x2="10.9654" y2="1.7065" gradientUnits="userSpaceOnUse">
<stop stop-color="#006BB3"/>
<stop offset="1" stop-color="#ADD587"/>
</linearGradient>
<linearGradient id="paint1_linear_142_2242" x1="-0.176682" y1="6.85718" x2="10.0727" y2="7.79864" gradientUnits="userSpaceOnUse">
<stop stop-color="#006BB3"/>
<stop offset="1" stop-color="#ADD587"/>
</linearGradient>
</defs>
</svg>
