<svg width="13" height="13" viewBox="0 0 13 13" fill="none" xmlns="http://www.w3.org/2000/svg">
<path d="M12.2053 5.19594H11.5832C11.4156 5.19594 11.2201 5.04356 11.1541 4.86325C11.0957 4.69564 11.0246 4.53057 10.9459 4.36804C10.8621 4.19789 10.8926 3.95155 11.0119 3.83219L11.4563 3.38777C11.766 3.07794 11.766 2.57257 11.4563 2.26275L10.7377 1.54405C10.5879 1.39422 10.3873 1.31041 10.174 1.31041C9.96074 1.31041 9.76016 1.39168 9.61035 1.54405L9.16856 1.98847C9.09746 2.05958 8.97813 2.10275 8.85117 2.10275C8.77246 2.10275 8.69629 2.08752 8.63281 2.0545C8.47285 1.97578 8.30527 1.90721 8.1377 1.84626C7.95742 1.78277 7.80508 1.58468 7.80508 1.41707V0.794882C7.80508 0.358078 7.44707 0 7.00781 0H5.99219C5.55293 0 5.19746 0.358078 5.19746 0.794882V1.41707C5.19746 1.58468 5.04512 1.78277 4.86484 1.84626C4.69727 1.90467 4.52969 1.97578 4.36973 2.05196C4.30625 2.08244 4.23008 2.10021 4.15137 2.10021C4.02441 2.10021 3.90508 2.05704 3.83398 1.98593L3.39219 1.54405C3.24238 1.39422 3.0418 1.31041 2.82852 1.31041C2.61523 1.31041 2.41465 1.39422 2.26484 1.54405L1.54375 2.26529C1.39395 2.41512 1.31016 2.61575 1.31016 2.82907C1.31016 3.04239 1.39395 3.24048 1.54375 3.39031L1.98809 3.83473C2.10742 3.95409 2.13789 4.20043 2.05664 4.37058C1.97793 4.53311 1.90938 4.69818 1.84844 4.86579C1.78496 5.0461 1.58691 5.19848 1.41934 5.19848H0.797266C0.358008 5.19594 0 5.55401 0 5.99336V7.00918C0 7.44852 0.358008 7.80406 0.794727 7.80406H1.4168C1.58438 7.80406 1.78242 7.95644 1.8459 8.13675C1.9043 8.30436 1.97539 8.46943 2.0541 8.63196C2.13789 8.80211 2.10488 9.04845 1.98555 9.16781L1.54121 9.61223C1.23145 9.92206 1.23145 10.4274 1.54121 10.7373L2.2623 11.4585C2.41211 11.6083 2.6127 11.6921 2.82598 11.6921C3.03926 11.6921 3.2373 11.6083 3.38965 11.4585L3.83398 11.0141C3.90508 10.943 4.02441 10.8998 4.15137 10.8998C4.23008 10.8998 4.30625 10.915 4.36973 10.948C4.52969 11.0268 4.69727 11.0953 4.86484 11.1537C5.04512 11.2172 5.19746 11.4153 5.19746 11.5829V12.2051C5.19746 12.6445 5.55547 13 5.99219 13H7.00781C7.44707 13 7.80508 12.6419 7.80508 12.2051V11.5829C7.80508 11.4153 7.95742 11.2172 8.1377 11.1537C8.30527 11.0953 8.47285 11.0242 8.63281 10.948C8.69375 10.9176 8.77246 10.8998 8.85117 10.8998C8.97813 10.8998 9.09746 10.943 9.16856 11.0141L9.61035 11.4585C9.76016 11.6083 9.96074 11.6921 10.174 11.6921C10.3873 11.6921 10.5854 11.6083 10.7377 11.4585L11.4563 10.7373C11.766 10.4274 11.766 9.92206 11.4563 9.61223L11.0145 9.17035C10.8951 9.05099 10.8646 8.80465 10.9484 8.6345C11.0271 8.47451 11.0957 8.3069 11.1541 8.13929C11.2176 7.95898 11.4156 7.8066 11.5832 7.8066H12.2053C12.6445 7.8066 13 7.44853 13 7.01172V5.99336C13 5.55401 12.642 5.19594 12.2053 5.19594ZM6.5 8.83512C5.2127 8.83512 4.1666 7.78883 4.1666 6.50127C4.1666 5.21625 5.2127 4.16742 6.5 4.16742C7.7873 4.16742 8.8334 5.21371 8.8334 6.50127C8.8334 7.78629 7.7873 8.83512 6.5 8.83512Z" fill="url(#paint0_linear_142_2246)"/>
<defs>
<linearGradient id="paint0_linear_142_2246" x1="-1.38189" y1="9.87469e-07" x2="15.8909" y2="1.5866" gradientUnits="userSpaceOnUse">
<stop stop-color="#006BB3"/>
<stop offset="1" stop-color="#ADD587"/>
</linearGradient>
</defs>
</svg>
