<svg width="22" height="22" viewBox="0 0 22 22" fill="none" xmlns="http://www.w3.org/2000/svg">
<path d="M11 14.3C12.8225 14.3 14.3 12.8225 14.3 11C14.3 9.17741 12.8225 7.69995 11 7.69995C9.17741 7.69995 7.69995 9.17741 7.69995 11C7.69995 12.8225 9.17741 14.3 11 14.3Z" fill="white"/>
<path d="M22 9.9H19.7241C19.4775 7.96411 18.5949 6.16495 17.215 4.78501C15.835 3.40507 14.0359 2.52251 12.1 2.2759V0H9.9V2.2759C7.96419 2.52269 6.16512 3.40531 4.78522 4.78522C3.40531 6.16512 2.52269 7.96419 2.2759 9.9H0V12.1H2.2759C2.52269 14.0358 3.40531 15.8349 4.78522 17.2148C6.16512 18.5947 7.96419 19.4773 9.9 19.7241V22H12.1V19.7241C14.0358 19.4773 15.8349 18.5947 17.2148 17.2148C18.5947 15.8349 19.4773 14.0358 19.7241 12.1H22V9.9ZM11 17.6C7.3601 17.6 4.4 14.6388 4.4 11C4.4 7.3612 7.3601 4.4 11 4.4C14.6399 4.4 17.6 7.3612 17.6 11C17.6 14.6388 14.6399 17.6 11 17.6Z" fill="white"/>
</svg>
