<svg width="16" height="12" viewBox="0 0 16 12" fill="none" xmlns="http://www.w3.org/2000/svg">
<path d="M13.5181 1.15493V9.74097C13.5174 9.93703 13.4392 10.1249 13.3006 10.2635C13.1619 10.4021 12.9741 10.4803 12.7781 10.481H0.736502C0.540564 10.4803 0.352924 10.4018 0.21482 10.2629C0.076717 10.1239 -0.000549096 9.93572 3.45879e-06 9.73978V1.15374C-0.000577641 0.965465 0.072083 0.784346 0.202622 0.648676C0.270715 0.574886 0.353433 0.516091 0.445506 0.476039C0.53758 0.435987 0.636987 0.415557 0.737393 0.416051H12.7781C12.8834 0.415005 12.9877 0.437323 13.0834 0.481399C13.1791 0.525475 13.2638 0.590214 13.3315 0.670958C13.453 0.802678 13.5197 0.975745 13.5181 1.15493Z" fill="url(#paint0_linear_142_2237)"/>
<path d="M14.3762 11.6784H2.33464C2.27554 11.6784 2.21887 11.6549 2.17708 11.6131C2.13529 11.5713 2.11182 11.5147 2.11182 11.4556C2.11182 11.3965 2.13529 11.3398 2.17708 11.298C2.21887 11.2562 2.27554 11.2327 2.33464 11.2327H14.3762C14.4149 11.2331 14.4534 11.2258 14.4892 11.2112C14.5251 11.1965 14.5577 11.1749 14.5851 11.1475C14.6124 11.1201 14.6341 11.0875 14.6487 11.0516C14.6634 11.0158 14.6707 10.9774 14.6703 10.9386V2.35258C14.6703 2.29349 14.6938 2.23681 14.7356 2.19502C14.7774 2.15324 14.834 2.12976 14.8931 2.12976C14.9522 2.12976 15.0089 2.15324 15.0507 2.19502C15.0925 2.23681 15.116 2.29349 15.116 2.35258V10.9386C15.1157 11.1348 15.0377 11.3228 14.899 11.4615C14.7603 11.6001 14.5723 11.6782 14.3762 11.6784Z" fill="url(#paint1_linear_142_2237)"/>
<path d="M13.2626 1.431V9.46504C13.2623 9.64864 13.1893 9.82465 13.0595 9.95447C12.9296 10.0843 12.7536 10.1573 12.57 10.1576H0.945608C0.762432 10.1569 0.586987 10.0837 0.457768 9.95384C0.328549 9.82401 0.256111 9.64822 0.256348 9.46504V1.431C0.257747 1.24863 0.330814 1.07412 0.459774 0.945165C0.588733 0.816206 0.763238 0.743138 0.945608 0.74174H12.5697C12.6683 0.740654 12.7658 0.761404 12.8553 0.802499C12.9449 0.843595 13.0242 0.904014 13.0876 0.979416C13.2011 1.10229 13.2636 1.26372 13.2626 1.431Z" fill="url(#paint2_linear_142_2237)"/>
<path d="M8.00895 2.28837C8.00895 2.47136 7.95469 2.65026 7.85304 2.80243C7.75139 2.9546 7.60691 3.07321 7.43786 3.14329C7.26881 3.21336 7.08277 3.23174 6.90328 3.1961C6.72378 3.16046 6.55888 3.07241 6.42942 2.94307C6.29996 2.81374 6.21175 2.64892 6.17594 2.46946C6.14013 2.29 6.15833 2.10395 6.22824 1.93483C6.29815 1.76571 6.41662 1.62111 6.5687 1.51931C6.72077 1.41752 6.89961 1.36309 7.08261 1.36292C7.32811 1.36299 7.56355 1.46049 7.73723 1.63401C7.91091 1.80752 8.00863 2.04286 8.00895 2.28837ZM8.83547 4.86685V5.08967H5.32975V4.86685C5.32975 4.10124 6.11586 3.47853 7.08261 3.47853C8.04935 3.47853 8.83547 4.10124 8.83547 4.86685ZM12.2182 6.27122H1.7548C1.69571 6.27122 1.63903 6.24774 1.59725 6.20596C1.55546 6.16417 1.53198 6.10749 1.53198 6.0484C1.53198 5.9893 1.55546 5.93263 1.59725 5.89084C1.63903 5.84905 1.69571 5.82558 1.7548 5.82558H12.2185C12.2776 5.82558 12.3343 5.84905 12.376 5.89084C12.4178 5.93263 12.4413 5.9893 12.4413 6.0484C12.4413 6.10749 12.4178 6.16417 12.376 6.20596C12.3343 6.24774 12.2776 6.27122 12.2185 6.27122H12.2182ZM11.624 7.71569H1.7548C1.69571 7.71569 1.63903 7.69222 1.59725 7.65043C1.55546 7.60865 1.53198 7.55197 1.53198 7.49287C1.53198 7.43378 1.55546 7.3771 1.59725 7.33532C1.63903 7.29353 1.69571 7.27005 1.7548 7.27005H11.6243C11.6834 7.27005 11.7401 7.29353 11.7819 7.33532C11.8236 7.3771 11.8471 7.43378 11.8471 7.49287C11.8471 7.55197 11.8236 7.60865 11.7819 7.65043C11.7401 7.69222 11.6834 7.71569 11.6243 7.71569H11.624ZM8.65305 9.16017H1.7548C1.69571 9.16017 1.63903 9.13669 1.59725 9.09491C1.55546 9.05312 1.53198 8.99644 1.53198 8.93735C1.53198 8.87825 1.55546 8.82158 1.59725 8.77979C1.63903 8.738 1.69571 8.71453 1.7548 8.71453H8.65335C8.71244 8.71453 8.76912 8.738 8.81091 8.77979C8.85269 8.82158 8.87617 8.87825 8.87617 8.93735C8.87617 8.99644 8.85269 9.05312 8.81091 9.09491C8.76912 9.13669 8.71244 9.16017 8.65335 9.16017H8.65305Z" fill="#006BB3"/>
<defs>
<linearGradient id="paint0_linear_142_2237" x1="-1.43697" y1="0.416016" x2="16.4043" y2="2.61708" gradientUnits="userSpaceOnUse">
<stop stop-color="#006BB3"/>
<stop offset="1" stop-color="#ADD587"/>
</linearGradient>
<linearGradient id="paint1_linear_142_2237" x1="0.729487" y1="2.12976" x2="17.8851" y2="4.27586" gradientUnits="userSpaceOnUse">
<stop stop-color="#006BB3"/>
<stop offset="1" stop-color="#ADD587"/>
</linearGradient>
<linearGradient id="paint2_linear_142_2237" x1="-1.1262" y1="0.7417" x2="16.0246" y2="2.9178" gradientUnits="userSpaceOnUse">
<stop stop-color="#006BB3"/>
<stop offset="1" stop-color="#ADD587"/>
</linearGradient>
</defs>
</svg>
