<svg width="25" height="24" viewBox="0 0 25 24" fill="none" xmlns="http://www.w3.org/2000/svg">
<g clip-path="url(#clip0_91_1809)">
<path d="M11.84 15.02C12.23 15.41 12.86 15.41 13.25 15.02L19.61 8.66004C20 8.27004 20 7.64004 19.61 7.25004L14.66 2.30004C14.28 1.90004 13.65 1.90004 13.26 2.29004L6.89 8.66004C6.5 9.05004 6.5 9.68004 6.89 10.07L11.84 15.02ZM13.96 4.41004L17.5 7.95004L12.55 12.9L9.01 9.36004L13.96 4.41004ZM20.91 15.41L18.79 13.29C18.61 13.11 18.35 13 18.09 13H17.82L15.82 15H17.73L19.5 17H5.5L7.28 15H9.33L7.33 13H6.91C6.64 13 6.39 13.11 6.2 13.29L4.08 15.41C3.71 15.79 3.5 16.3 3.5 16.83V20C3.5 21.1 4.4 22 5.5 22H19.5C20.6 22 21.5 21.11 21.5 20V16.83C21.5 16.3 21.29 15.79 20.91 15.41Z" fill="white"/>
</g>
<defs>
<clipPath id="clip0_91_1809">
<rect width="24" height="24" fill="white" transform="translate(0.5)"/>
</clipPath>
</defs>
</svg>
